<svg width="109" height="62" viewBox="0 0 109 62" fill="none" xmlns="http://www.w3.org/2000/svg">
<path d="M2.39814 45.3761C2.58227 48.5875 7.03846 52.8565 9.01398 54.5514C9.58696 54.6355 11.121 56.1485 16.7732 55.9247C21.2951 55.7456 25.4284 50.1321 26.9299 47.3477C24.2436 47.3045 18.4894 44.2354 18.5062 44.1208C18.5197 44.0291 20.1274 44.2417 20.9297 44.3595C24.8341 44.5581 28.6027 42.5982 29.999 41.5935C32.4038 39.8861 34.3817 36.4614 35.07 34.9625C30.3808 34.3677 27.8397 32.379 27.1552 31.459C27.7619 31.314 32.7402 31.6936 34.7053 31.8651C36.2773 32.0022 37.0993 31.2409 37.3138 30.8432C40.0441 26.2802 39.815 18.0593 39.3591 14.5193C39.2532 11.4131 37.4415 6.31595 36.549 4.15567C36.0233 4.54677 32.6451 5.4947 31.0218 5.91978C26.6069 8.08134 26.9737 9.51744 26.7288 10.4407C26.4621 11.4461 26.4393 11.8811 26.2473 12.126C25.4787 11.7791 25.3841 10.8286 22.5159 11.227C19.6477 11.6254 18.7382 13.8333 17.2084 15.4819C15.9845 16.8007 15.5846 18.8337 15.5376 19.6853C15.6795 21.111 17.6214 23.0351 17.8169 23.2979C18.0125 23.5608 18.5182 24.1033 18.0766 23.9214C17.635 23.7395 15.4271 22.83 13.1824 22.9687C10.9377 23.1075 8.47837 27.8976 7.9095 30.975C7.34062 34.0524 9.75139 37.5672 10.1425 38.0929C10.4554 38.5135 10.282 38.7378 10.1561 38.7974C9.20219 38.3842 7.00642 37.4452 5.85494 36.9952C4.4156 36.4327 3.52927 36.8879 3.05087 37.7542C2.27807 39.1537 1.83595 42.826 2.39814 45.3761Z" fill="#47D5FE"/>
<path d="M30.6526 12.4215C30.211 12.2396 29.499 11.6668 30.1837 10.8307C31.0395 9.78568 31.9805 12.1482 30.6526 12.4215Z" fill="white"/>
<path d="M6.72928 56.5573C6.78312 56.1906 24.5973 27.8835 33.4976 13.7758C34.2471 13.1365 33.9921 14.3947 33.7709 15.1037C33.4376 16.5767 9.51971 55.0939 8.38418 56.4491C7.24864 57.8043 6.66199 57.0157 6.72928 56.5573Z" fill="white"/>
<path d="M6.19339 42.6642C6.32875 44.9319 9.01631 45.4981 10.3432 45.4978C10.7879 44.8607 9.56095 44.4464 8.18891 43.4255C7.09128 42.6087 6.40121 42.5777 6.19339 42.6642Z" fill="white"/>
<path d="M20.7424 50.4196C21.6861 50.3709 21.4433 49.8981 21.2039 49.6679C20.4859 48.9771 17.7186 48.6879 17.1288 48.7184C16.5389 48.7489 16.3907 48.9612 16.4212 49.5511C16.4516 50.1409 19.5627 50.4806 20.7424 50.4196Z" fill="white"/>
<path d="M15.6656 33.1672C17.2216 34.0513 16.7317 32.8164 16.2922 32.0885C15.8303 31.5134 14.6058 30.1785 13.4031 29.44C12.2003 28.7015 12.2998 29.5122 12.4999 30.0098C12.9068 30.6939 14.1095 32.2832 15.6656 33.1672Z" fill="white"/>
<path d="M23.3842 19.6665C24.5331 20.7717 24.6178 19.7695 24.5165 19.1303C24.5333 19.0157 24.2413 18.2938 22.9384 16.3231C21.6356 14.3523 21.6519 15.783 21.8229 16.7446C21.8646 17.2581 22.2352 18.5612 23.3842 19.6665Z" fill="white"/>
<path d="M32.425 24.2718C30.9177 24.3315 31.6848 25.0607 32.2567 25.4178C34.7106 26.2463 35.6643 25.3327 35.4687 25.0699C35.2732 24.807 34.3091 24.1972 32.425 24.2718Z" fill="white"/>
<path d="M28.0771 38.7357C29.4011 38.6491 28.7185 38.0884 28.2117 37.8189C26.5769 36.9935 24.2007 37.23 24.3458 37.8366C24.4909 38.4433 26.4223 38.8439 28.0771 38.7357Z" fill="white"/>
<path d="M54.7784 23.9627C54.9824 23.9627 55.1504 24.0347 55.2824 24.1787C55.4264 24.3107 55.4984 24.4787 55.4984 24.6827V26.6087C55.4984 27.0047 55.3364 27.2027 55.0124 27.2027H54.5624C54.2384 27.2027 54.0764 27.0047 54.0764 26.6087V25.3847H51.3584V35.1407H51.8264C52.2224 35.1407 52.4204 35.3027 52.4204 35.6267V36.0767C52.4204 36.4007 52.2224 36.5627 51.8264 36.5627H49.2704C48.8864 36.5627 48.6944 36.4007 48.6944 36.0767V35.6267C48.6944 35.3027 48.8864 35.1407 49.2704 35.1407H49.7384V25.3847H47.0204V26.6087C47.0204 27.0047 46.8584 27.2027 46.5344 27.2027H46.0844C45.7604 27.2027 45.5984 27.0047 45.5984 26.6087V24.6827C45.5984 24.4787 45.6644 24.3107 45.7964 24.1787C45.9284 24.0347 46.0964 23.9627 46.3004 23.9627H54.7784ZM69.3944 27.5627C69.7904 27.5627 69.9884 27.7247 69.9884 28.0487V28.4987C69.9884 28.8227 69.7904 28.9847 69.3944 28.9847H68.9264L66.6764 36.1667C66.6404 36.2867 66.5744 36.3827 66.4784 36.4547C66.3824 36.5267 66.2624 36.5627 66.1184 36.5627H65.6324C65.3444 36.5627 65.1524 36.4307 65.0564 36.1667L63.1664 31.0547L61.2584 36.1667C61.1624 36.4307 60.9704 36.5627 60.6824 36.5627H60.1964C60.0524 36.5627 59.9324 36.5267 59.8364 36.4547C59.7404 36.3827 59.6744 36.2867 59.6384 36.1667L57.3884 28.9847H56.9204C56.5244 28.9847 56.3264 28.8227 56.3264 28.4987V28.0487C56.3264 27.7247 56.5244 27.5627 56.9204 27.5627H59.4944C59.8904 27.5627 60.0884 27.7247 60.0884 28.0487V28.4987C60.0884 28.8227 59.8904 28.9847 59.4944 28.9847H59.0264L60.6644 34.2587L62.4464 29.4527C62.5424 29.1647 62.7344 29.0207 63.0224 29.0207H63.4724C63.7364 29.0207 63.9284 29.1647 64.0484 29.4527L65.8124 34.2587L67.4504 28.9847H66.9824C66.5984 28.9847 66.4064 28.8227 66.4064 28.4987V28.0487C66.4064 27.7247 66.5984 27.5627 66.9824 27.5627H69.3944ZM78.9933 31.6127C78.9933 31.6727 78.9753 31.9367 78.9393 32.4047H72.5493C72.6093 33.3167 72.8733 34.0367 73.3413 34.5647C73.8093 35.0807 74.4333 35.3387 75.2133 35.3387C75.7413 35.3387 76.1613 35.2547 76.4733 35.0867C76.7853 34.9187 77.0793 34.6187 77.3553 34.1867C77.4513 34.0427 77.5413 33.9407 77.6253 33.8807C77.7213 33.8207 77.8293 33.7907 77.9493 33.7907C78.1293 33.7907 78.2853 33.8507 78.4173 33.9707C78.5613 34.0787 78.6333 34.2167 78.6333 34.3847C78.6333 34.6127 78.5493 34.8467 78.3813 35.0867C78.0333 35.6507 77.6013 36.0707 77.0853 36.3467C76.5693 36.6107 75.9273 36.7427 75.1593 36.7427C74.3073 36.7427 73.5573 36.5447 72.9093 36.1487C72.2733 35.7527 71.7753 35.1947 71.4153 34.4747C71.0673 33.7547 70.8933 32.9267 70.8933 31.9907C70.8933 31.0667 71.0673 30.2567 71.4153 29.5607C71.7633 28.8647 72.2553 28.3307 72.8913 27.9587C73.5273 27.5747 74.2653 27.3827 75.1053 27.3827C76.2693 27.3827 77.2053 27.7547 77.9133 28.4987C78.6333 29.2427 78.9933 30.2807 78.9933 31.6127ZM75.0693 28.7147C74.3613 28.7147 73.7913 28.9307 73.3593 29.3627C72.9393 29.7827 72.6813 30.3947 72.5853 31.1987H77.3553C77.3433 29.5427 76.5813 28.7147 75.0693 28.7147ZM88.9426 31.6127C88.9426 31.6727 88.9246 31.9367 88.8886 32.4047H82.4986C82.5586 33.3167 82.8226 34.0367 83.2906 34.5647C83.7586 35.0807 84.3826 35.3387 85.1626 35.3387C85.6906 35.3387 86.1106 35.2547 86.4226 35.0867C86.7346 34.9187 87.0286 34.6187 87.3046 34.1867C87.4006 34.0427 87.4906 33.9407 87.5746 33.8807C87.6706 33.8207 87.7786 33.7907 87.8986 33.7907C88.0786 33.7907 88.2346 33.8507 88.3666 33.9707C88.5106 34.0787 88.5826 34.2167 88.5826 34.3847C88.5826 34.6127 88.4986 34.8467 88.3306 35.0867C87.9826 35.6507 87.5506 36.0707 87.0346 36.3467C86.5186 36.6107 85.8766 36.7427 85.1086 36.7427C84.2566 36.7427 83.5066 36.5447 82.8586 36.1487C82.2226 35.7527 81.7246 35.1947 81.3646 34.4747C81.0166 33.7547 80.8426 32.9267 80.8426 31.9907C80.8426 31.0667 81.0166 30.2567 81.3646 29.5607C81.7126 28.8647 82.2046 28.3307 82.8406 27.9587C83.4766 27.5747 84.2146 27.3827 85.0546 27.3827C86.2186 27.3827 87.1546 27.7547 87.8626 28.4987C88.5826 29.2427 88.9426 30.2807 88.9426 31.6127ZM85.0186 28.7147C84.3106 28.7147 83.7406 28.9307 83.3086 29.3627C82.8886 29.7827 82.6306 30.3947 82.5346 31.1987H87.3046C87.2926 29.5427 86.5306 28.7147 85.0186 28.7147ZM97.1098 33.6107C97.3018 33.6107 97.4698 33.6707 97.6138 33.7907C97.7578 33.8987 97.8298 34.0367 97.8298 34.2047C97.8298 34.3967 97.7698 34.6127 97.6498 34.8527C97.3738 35.4047 97.0438 35.8607 96.6598 36.2207C96.2758 36.5687 95.7478 36.7427 95.0758 36.7427C94.0918 36.7427 93.3418 36.4487 92.8258 35.8607C92.3218 35.2727 92.0698 34.4147 92.0698 33.2867V28.9667H90.9538C90.7378 28.9667 90.5698 28.9127 90.4498 28.8047C90.3418 28.6967 90.2878 28.5467 90.2878 28.3547V28.1567C90.2878 27.9647 90.3418 27.8207 90.4498 27.7247C90.5698 27.6167 90.7378 27.5627 90.9538 27.5627H92.0698V25.9067C92.0698 25.6907 92.1238 25.5287 92.2318 25.4207C92.3518 25.3007 92.5138 25.2407 92.7178 25.2407H93.0598C93.2638 25.2407 93.4198 25.3007 93.5278 25.4207C93.6358 25.5287 93.6898 25.6907 93.6898 25.9067V27.5627H96.0298C96.2458 27.5627 96.4078 27.6167 96.5158 27.7247C96.6358 27.8207 96.6958 27.9647 96.6958 28.1567V28.3547C96.6958 28.5467 96.6358 28.6967 96.5158 28.8047C96.4078 28.9127 96.2458 28.9667 96.0298 28.9667H93.6898V33.2507C93.6898 34.6427 94.1698 35.3387 95.1298 35.3387C95.5018 35.3387 95.7778 35.2427 95.9578 35.0507C96.1498 34.8467 96.3478 34.5107 96.5518 34.0427C96.6358 33.8867 96.7138 33.7787 96.7858 33.7187C96.8698 33.6467 96.9778 33.6107 97.1098 33.6107ZM107.321 27.5627C107.717 27.5627 107.915 27.7247 107.915 28.0487V28.4987C107.915 28.8227 107.717 28.9847 107.321 28.9847H106.853L103.163 38.0567C102.719 39.1127 102.281 39.8447 101.849 40.2527C101.429 40.6727 100.889 40.8827 100.229 40.8827C99.713 40.8827 99.287 40.7387 98.951 40.4507C98.627 40.1747 98.465 39.8207 98.465 39.3887C98.465 39.0767 98.561 38.8247 98.753 38.6327C98.957 38.4407 99.215 38.3447 99.527 38.3447C99.803 38.3447 100.037 38.4407 100.229 38.6327C100.421 38.8247 100.517 39.0587 100.517 39.3347C100.517 39.3947 100.505 39.4727 100.481 39.5687C100.709 39.5207 100.913 39.3707 101.093 39.1187C101.273 38.8787 101.471 38.4887 101.687 37.9487L102.353 36.2747L99.365 28.9847H98.897C98.501 28.9847 98.303 28.8227 98.303 28.4987V28.0487C98.303 27.7247 98.501 27.5627 98.897 27.5627H101.363C101.747 27.5627 101.939 27.7247 101.939 28.0487V28.4987C101.939 28.8227 101.747 28.9847 101.363 28.9847H101.057L103.199 34.3307L105.305 28.9847H104.945C104.549 28.9847 104.351 28.8227 104.351 28.4987V28.0487C104.351 27.7247 104.549 27.5627 104.945 27.5627H107.321Z" fill="black"/>
</svg>
