<svg width="149" height="88" viewBox="0 0 149 88" fill="none" xmlns="http://www.w3.org/2000/svg">
<path d="M3.45236 65.324C3.71744 69.9471 10.1326 76.0929 12.9766 78.5328C13.8015 78.6539 16.0098 80.8321 24.1469 80.5099C30.6566 80.2521 36.607 72.1707 38.7685 68.1623C34.9013 68.1001 26.6175 63.6818 26.6417 63.5168C26.6611 63.3848 28.9757 63.6909 30.1305 63.8604C35.7514 64.1463 41.1768 61.3249 43.1869 59.8785C46.6488 57.4205 49.4962 52.4902 50.4872 50.3324C43.7366 49.4761 40.0783 46.6132 39.0929 45.2888C39.9663 45.08 47.1332 45.6265 49.9621 45.8733C52.2252 46.0707 53.4085 44.9748 53.7173 44.4022C57.648 37.8333 57.3181 25.9985 56.6618 20.9022C56.5093 16.4304 53.9012 9.09254 52.6163 5.98258C51.8595 6.54562 46.9962 7.91027 44.6592 8.52222C38.3036 11.634 38.8317 13.7015 38.4791 15.0305C38.0951 16.478 38.0623 17.1042 37.7858 17.4568C36.6794 16.9573 36.5432 15.589 32.4141 16.1626C28.285 16.7361 26.9757 19.9147 24.7733 22.2879C23.0115 24.1865 22.4357 27.1132 22.3681 28.3392C22.5724 30.3917 25.3679 33.1616 25.6494 33.54C25.9309 33.9184 26.659 34.6994 26.0233 34.4376C25.3876 34.1757 22.209 32.8664 18.9775 33.0661C15.746 33.2658 12.2055 40.1617 11.3866 44.5919C10.5676 49.0222 14.0382 54.0822 14.6012 54.8391C15.0517 55.4445 14.802 55.7674 14.6209 55.8532C13.2476 55.2583 10.0865 53.9066 8.42882 53.2587C6.35672 52.4489 5.08074 53.1043 4.39203 54.3515C3.2795 56.3661 2.64302 61.6529 3.45236 65.324Z" fill="#47D5FE"/>
<path d="M44.1278 17.8822C43.4921 17.6203 42.4671 16.7957 43.4528 15.5921C44.6849 14.0876 46.0395 17.4887 44.1278 17.8822Z" fill="white"/>
<path d="M9.68754 81.4206C9.76504 80.8926 35.4105 40.1414 48.2235 19.8318C49.3024 18.9115 48.9354 20.7228 48.617 21.7434C48.1372 23.864 13.7047 79.3137 12.0699 81.2647C10.4352 83.2157 9.59065 82.0805 9.68754 81.4206Z" fill="white"/>
<path d="M8.91605 61.4199C9.11093 64.6844 12.98 65.4996 14.8901 65.4992C15.5304 64.582 13.764 63.9856 11.7888 62.5158C10.2087 61.34 9.21524 61.2953 8.91605 61.4199Z" fill="white"/>
<path d="M29.8609 72.5847C31.2195 72.5145 30.87 71.8339 30.5254 71.5025C29.4917 70.508 25.5079 70.0917 24.6588 70.1355C23.8096 70.1794 23.5962 70.4852 23.6401 71.3343C23.684 72.1834 28.1627 72.6724 29.8609 72.5847Z" fill="white"/>
<path d="M22.5523 47.7479C24.7924 49.0206 24.0871 47.2429 23.4545 46.195C22.7895 45.367 21.0267 43.4453 19.2952 42.3822C17.5637 41.319 17.7069 42.4861 17.995 43.2025C18.5807 44.1874 20.3122 46.4752 22.5523 47.7479Z" fill="white"/>
<path d="M33.6641 28.3121C35.3181 29.9032 35.44 28.4605 35.2942 27.5402C35.3185 27.3752 34.898 26.336 33.0224 23.4989C31.1468 20.6617 31.1703 22.7213 31.4165 24.1058C31.4765 24.8449 32.0101 26.721 33.6641 28.3121Z" fill="white"/>
<path d="M46.6793 34.9419C44.5094 35.0279 45.6137 36.0776 46.4371 36.5918C49.9698 37.7845 51.3427 36.4693 51.0612 36.0909C50.7796 35.7125 49.3917 34.8345 46.6793 34.9419Z" fill="white"/>
<path d="M40.4202 55.7643C42.3261 55.6396 41.3435 54.8325 40.6139 54.4445C38.2603 53.2563 34.8396 53.5967 35.0484 54.4701C35.2573 55.3434 38.0378 55.9202 40.4202 55.7643Z" fill="white"/>
<path d="M76.6855 35.6985C76.9575 35.6985 77.1815 35.7945 77.3575 35.9865C77.5495 36.1625 77.6455 36.3865 77.6455 36.6585V39.2265C77.6455 39.7545 77.4295 40.0185 76.9975 40.0185H76.3975C75.9655 40.0185 75.7495 39.7545 75.7495 39.2265V37.5945H72.1255V50.6025H72.7495C73.2775 50.6025 73.5415 50.8185 73.5415 51.2505V51.8505C73.5415 52.2825 73.2775 52.4985 72.7495 52.4985H69.3415C68.8295 52.4985 68.5735 52.2825 68.5735 51.8505V51.2505C68.5735 50.8185 68.8295 50.6025 69.3415 50.6025H69.9655V37.5945H66.3415V39.2265C66.3415 39.7545 66.1255 40.0185 65.6935 40.0185H65.0935C64.6615 40.0185 64.4455 39.7545 64.4455 39.2265V36.6585C64.4455 36.3865 64.5335 36.1625 64.7095 35.9865C64.8855 35.7945 65.1095 35.6985 65.3815 35.6985H76.6855ZM96.1735 40.4985C96.7015 40.4985 96.9655 40.7145 96.9655 41.1465V41.7465C96.9655 42.1785 96.7015 42.3945 96.1735 42.3945H95.5495L92.5495 51.9705C92.5015 52.1305 92.4135 52.2585 92.2855 52.3545C92.1575 52.4505 91.9975 52.4985 91.8055 52.4985H91.1575C90.7735 52.4985 90.5175 52.3225 90.3895 51.9705L87.8695 45.1545L85.3255 51.9705C85.1975 52.3225 84.9415 52.4985 84.5575 52.4985H83.9095C83.7175 52.4985 83.5575 52.4505 83.4295 52.3545C83.3015 52.2585 83.2135 52.1305 83.1655 51.9705L80.1655 42.3945H79.5415C79.0135 42.3945 78.7495 42.1785 78.7495 41.7465V41.1465C78.7495 40.7145 79.0135 40.4985 79.5415 40.4985H82.9735C83.5015 40.4985 83.7655 40.7145 83.7655 41.1465V41.7465C83.7655 42.1785 83.5015 42.3945 82.9735 42.3945H82.3495L84.5335 49.4265L86.9095 43.0185C87.0375 42.6345 87.2935 42.4425 87.6775 42.4425H88.2775C88.6295 42.4425 88.8855 42.6345 89.0455 43.0185L91.3975 49.4265L93.5815 42.3945H92.9575C92.4455 42.3945 92.1895 42.1785 92.1895 41.7465V41.1465C92.1895 40.7145 92.4455 40.4985 92.9575 40.4985H96.1735ZM108.972 45.8985C108.972 45.9785 108.948 46.3305 108.9 46.9545H100.38C100.46 48.1705 100.812 49.1305 101.436 49.8345C102.06 50.5225 102.892 50.8665 103.932 50.8665C104.636 50.8665 105.196 50.7545 105.612 50.5305C106.028 50.3065 106.42 49.9065 106.788 49.3305C106.916 49.1385 107.036 49.0025 107.148 48.9225C107.276 48.8425 107.42 48.8025 107.58 48.8025C107.82 48.8025 108.028 48.8825 108.204 49.0425C108.396 49.1865 108.492 49.3705 108.492 49.5945C108.492 49.8985 108.38 50.2105 108.156 50.5305C107.692 51.2825 107.116 51.8425 106.428 52.2105C105.74 52.5625 104.884 52.7385 103.86 52.7385C102.724 52.7385 101.724 52.4745 100.86 51.9465C100.012 51.4185 99.3481 50.6745 98.8681 49.7145C98.4041 48.7545 98.1721 47.6505 98.1721 46.4025C98.1721 45.1705 98.4041 44.0905 98.8681 43.1625C99.3321 42.2345 99.9881 41.5225 100.836 41.0265C101.684 40.5145 102.668 40.2585 103.788 40.2585C105.34 40.2585 106.588 40.7545 107.532 41.7465C108.492 42.7385 108.972 44.1225 108.972 45.8985ZM103.74 42.0345C102.796 42.0345 102.036 42.3225 101.46 42.8985C100.9 43.4585 100.556 44.2745 100.428 45.3465H106.788C106.772 43.1385 105.756 42.0345 103.74 42.0345ZM122.238 45.8985C122.238 45.9785 122.214 46.3305 122.166 46.9545H113.646C113.726 48.1705 114.078 49.1305 114.702 49.8345C115.326 50.5225 116.158 50.8665 117.198 50.8665C117.902 50.8665 118.462 50.7545 118.878 50.5305C119.294 50.3065 119.686 49.9065 120.054 49.3305C120.182 49.1385 120.302 49.0025 120.414 48.9225C120.542 48.8425 120.686 48.8025 120.846 48.8025C121.086 48.8025 121.294 48.8825 121.47 49.0425C121.662 49.1865 121.758 49.3705 121.758 49.5945C121.758 49.8985 121.646 50.2105 121.422 50.5305C120.958 51.2825 120.382 51.8425 119.694 52.2105C119.006 52.5625 118.15 52.7385 117.126 52.7385C115.99 52.7385 114.99 52.4745 114.126 51.9465C113.278 51.4185 112.614 50.6745 112.134 49.7145C111.67 48.7545 111.438 47.6505 111.438 46.4025C111.438 45.1705 111.67 44.0905 112.134 43.1625C112.598 42.2345 113.254 41.5225 114.102 41.0265C114.95 40.5145 115.934 40.2585 117.054 40.2585C118.606 40.2585 119.854 40.7545 120.798 41.7465C121.758 42.7385 122.238 44.1225 122.238 45.8985ZM117.006 42.0345C116.062 42.0345 115.302 42.3225 114.726 42.8985C114.166 43.4585 113.822 44.2745 113.694 45.3465H120.054C120.038 43.1385 119.022 42.0345 117.006 42.0345ZM133.127 48.5625C133.383 48.5625 133.607 48.6425 133.799 48.8025C133.991 48.9465 134.087 49.1305 134.087 49.3545C134.087 49.6105 134.007 49.8985 133.847 50.2185C133.479 50.9545 133.039 51.5625 132.527 52.0425C132.015 52.5065 131.311 52.7385 130.415 52.7385C129.103 52.7385 128.103 52.3465 127.415 51.5625C126.743 50.7785 126.407 49.6345 126.407 48.1305V42.3705H124.919C124.631 42.3705 124.407 42.2985 124.247 42.1545C124.103 42.0105 124.031 41.8105 124.031 41.5545V41.2905C124.031 41.0345 124.103 40.8425 124.247 40.7145C124.407 40.5705 124.631 40.4985 124.919 40.4985H126.407V38.2905C126.407 38.0025 126.479 37.7865 126.623 37.6425C126.783 37.4825 126.999 37.4025 127.271 37.4025H127.727C127.999 37.4025 128.207 37.4825 128.351 37.6425C128.495 37.7865 128.567 38.0025 128.567 38.2905V40.4985H131.687C131.975 40.4985 132.191 40.5705 132.335 40.7145C132.495 40.8425 132.575 41.0345 132.575 41.2905V41.5545C132.575 41.8105 132.495 42.0105 132.335 42.1545C132.191 42.2985 131.975 42.3705 131.687 42.3705H128.567V48.0825C128.567 49.9385 129.207 50.8665 130.487 50.8665C130.983 50.8665 131.351 50.7385 131.591 50.4825C131.847 50.2105 132.111 49.7625 132.383 49.1385C132.495 48.9305 132.599 48.7865 132.695 48.7065C132.807 48.6105 132.951 48.5625 133.127 48.5625ZM146.742 40.4985C147.27 40.4985 147.534 40.7145 147.534 41.1465V41.7465C147.534 42.1785 147.27 42.3945 146.742 42.3945H146.118L141.198 54.4905C140.606 55.8985 140.022 56.8745 139.446 57.4185C138.886 57.9785 138.166 58.2585 137.286 58.2585C136.598 58.2585 136.03 58.0665 135.582 57.6825C135.15 57.3145 134.934 56.8425 134.934 56.2665C134.934 55.8505 135.062 55.5145 135.318 55.2585C135.59 55.0025 135.934 54.8745 136.35 54.8745C136.718 54.8745 137.03 55.0025 137.286 55.2585C137.542 55.5145 137.67 55.8265 137.67 56.1945C137.67 56.2745 137.654 56.3785 137.622 56.5065C137.926 56.4425 138.198 56.2425 138.438 55.9065C138.678 55.5865 138.942 55.0665 139.23 54.3465L140.118 52.1145L136.134 42.3945H135.51C134.982 42.3945 134.718 42.1785 134.718 41.7465V41.1465C134.718 40.7145 134.982 40.4985 135.51 40.4985H138.798C139.31 40.4985 139.566 40.7145 139.566 41.1465V41.7465C139.566 42.1785 139.31 42.3945 138.798 42.3945H138.39L141.246 49.5225L144.054 42.3945H143.574C143.046 42.3945 142.782 42.1785 142.782 41.7465V41.1465C142.782 40.7145 143.046 40.4985 143.574 40.4985H146.742Z" fill="black"/>
</svg>
